<?xml version="1.0" encoding="UTF-8"?>
<svg xmlns="http://www.w3.org/2000/svg" viewBox="0 0 212.81 473.12">
  <defs>
    <style>
      .cls-1 {
        fill: #ec9747;
      }

      .cls-2 {
        isolation: isolate;
      }

      .cls-3 {
        fill: #f7ca53;
      }

      .cls-4 {
        fill: #ffe6be;
      }

      .cls-5 {
        mix-blend-mode: multiply;
        opacity: .48;
      }

      .cls-5, .cls-6 {
        fill: #d58c59;
      }

      .cls-7 {
        fill: #f3a353;
      }

      .cls-8 {
        fill: #131313;
      }
    </style>
  </defs>
  <g class="cls-2">
    <g id="Layer_1" data-name="Layer 1">
      <g>
        <path class="cls-7" d="M162.94,22.67c10.58-2.26,16.76-10.62,18.21-12.08s4,16.37-7.27,19.64c-11.28,3.27-10.94-7.56-10.94-7.56Z"/>
        <path class="cls-6" d="M157.74,22.47c-1.87-2.88-4.01-5.97-7.31-6.93-17.26-5.04-23.86,30.18-25.22,40.15-6.01,44.11-3.85,89.31-11.86,133-3.8,20.75-7.18,43.73-14.95,63.42-6.76,17.12-17.47,27.65-32.46,37.97-12.73,8.76-25.08,18.07-37.01,27.89-1.92,1.58-3.87,3.22-5.04,5.41-1.65,3.09-1.52,6.84-.77,10.26.98,4.47,3.52,9.21,7.97,10.29,3.36.81,6.81-.71,9.93-2.2,22.93-10.9,47.17-22.95,60.17-44.75,4.86-8.15,7.86-17.25,10.72-26.29,8.56-27.11,16.16-54.52,22.78-82.17,9.06-37.85,17.55-72.23,22.72-110.81,1.55-11.55,3.1-23.19,2.36-34.82-.45-7.08,1.82-14.47-2.04-20.43Z"/>
        <path class="cls-3" d="M200.23,66.11c-2.23.61-6.05,1.22-10.17,1.9-.25.04-.49.08-.74.12-5.6.92-11.58,1.99-14.81,3.36-1.28.54-2.12,1.13-2.34,1.78-.44,1.31-1.44,10.25-2.68,22.44-.03.3-.06.59-.09.89-1.42,14.05-3.14,32.18-4.68,47.88-.77,7.76-1.48,14.93-2.1,20.73-.07.66-.14,1.34-.21,2.05-.75,7.7-1.45,18.11-1.99,29.98h0c-.53,11.89-.91,25.21-1.02,38.7-.2,24.34.44,49.2,2.54,67,.44,3.76.93,8.26,1.45,13.31,1.14,11.2,2.45,25.13,3.77,39.91,1.77,19.73,3.58,40.96,5.12,59.2h0c1.04,12.36,1.95,23.33,2.65,31.54.69,8.29,1.17,13.75,1.32,14.94.3,2.43-5.16,3.89-11.99,4.75-10.08,1.28-23.11,1.28-24.91,1.28-3.01,0-5.27-18.83-5.27-18.83,0,0-31.57,7.02-61.19,14.1-6.69,1.6-13.28,3.2-19.39,4.73-6.91,1.73-12.96,1.95-18.22,1.21h0c-19.97-2.78-28.46-19.28-28.46-19.28v-115.23s8.05-2.31,19.8-7.84c8.9-4.19,19.93-10.24,31.18-18.53,14.08-10.38,28.52-24.27,39.58-42.47,4.93-8.07,9.18-16.98,12.44-26.8,14.85-44.69,20.61-84.3,23.02-115.39,1.23-15.85,1.58-29.48,1.82-40.44.07-2.69.12-5.22.18-7.59.75-30.87,4.02-47.24,14.06-52.99,10-5.73,22.09,5.38,36.42,10.75,11.35,4.25,21.58,8.14,25.62,14.02,1.08,1.54,1.72,3.22,1.84,5.08.6,8.96-5.97,11.95-12.54,13.74Z"/>
        <path class="cls-3" d="M145.51,32.77c-6.95,3.26-28.76-6.54-32.87-6.54s8.85,24.33,30.02,18.33l2.84-11.79Z"/>
        <path class="cls-7" d="M112.64,26.23c2.68,16.37,15.9,26.11,30.02,18.33l-30.02-18.33Z"/>
        <ellipse class="cls-8" cx="169.84" cy="42.94" rx="2.87" ry="4.34"/>
        <path class="cls-4" d="M200.23,66.11c-2.23.61-6.05,1.22-10.17,1.9h0c-5.28-17.52,11.1-30.87,20.87-20.72,1.08,1.54,1.72,3.22,1.84,5.08.6,8.96-5.97,11.95-12.54,13.74Z"/>
        <path class="cls-8" d="M200.85,53.13c.35,1.21-.1,2.4-1,2.67-.9.26-1.92-.51-2.27-1.72-.35-1.21.1-2.4,1-2.67.9-.26,1.92.51,2.27,1.72Z"/>
        <path class="cls-8" d="M210,54.01c-.3,1.22-1.28,2.04-2.19,1.81-.91-.22-1.41-1.4-1.11-2.62.3-1.22,1.28-2.04,2.19-1.81.91.22,1.41,1.4,1.11,2.62Z"/>
        <g>
          <polygon class="cls-6" points="151.54 27.83 137.2 13.49 136 14.69 147.21 30.84 151.54 27.83"/>
          <circle class="cls-6" cx="134.87" cy="12.57" r="3.85"/>
        </g>
        <g>
          <polygon class="cls-6" points="164.01 26.21 161.9 6.03 160.22 6.21 158.75 25.81 164.01 26.21"/>
          <path class="cls-6" d="M163.66,6.27c-1.34,1.65-3.76,1.9-5.41.57-1.65-1.34-1.9-3.76-.57-5.41,1.34-1.65,3.76-1.9,5.41-.57,1.65,1.34,1.9,3.76.57,5.41Z"/>
        </g>
        <g>
          <path class="cls-1" d="M174.51,71.49c-1.28.54-2.12,1.13-2.34,1.78-.45,1.34-1.49,10.69-2.77,23.33-3.05.49-6.12.25-8.85-1.16-1.11-.58-2.11-1.32-3.1-2.09-.39-.31-.79-.62-1.08-1.03-.39-.54-.57-1.2-.75-1.84-1.27-4.7-2.54-9.4-3.81-14.09-.23-.86-.46-1.8-.08-2.59,2.05-4.32,10.91-6.55,14.82-5.57,2.67.67,5.67,1.6,7.96,3.26Z"/>
          <path class="cls-1" d="M148.82,116.84c-2.62,3.7-7.09,5.74-11.58,6.4-1.46.22-2.94.3-4.41.3,1.23-15.85,1.58-29.48,1.82-40.44,1.86.77,3.62,2.2,5.07,4.36,2.07,3.09,2.9,6.83,3.72,10.46.83,3.63,1.76,7.36,3.99,10.35,1.06,1.42,2.46,2.76,2.69,4.52.19,1.44-.46,2.87-1.3,4.05Z"/>
          <path class="cls-1" d="M164.72,144.48c-.77,7.76-1.48,14.93-2.1,20.73-.07.66-.14,1.34-.21,2.05-3.23-1.19-6.09-3.36-8.07-6.17-.5-.71-.95-1.47-1.12-2.31-.15-.72-.1-1.47.03-2.19.72-3.97,3.67-7.13,6.71-9.77,1.14-.99,2.86-1.84,4.76-2.34Z"/>
          <path class="cls-1" d="M160.42,197.24h0c-.53,11.89-.91,25.21-1.02,38.7-.72.47-1.49.86-2.32,1.1-1.62.47-3.35.34-5.04.21-3.44-.27-6.87-.54-10.31-.81-1.23-.1-2.51-.21-3.6-.78-1.29-.67-2.17-1.9-3.01-3.08-1.7-2.4-3.41-4.81-5.11-7.21-.55-.77-1.11-1.57-1.35-2.49-.26-.97-.15-2-.03-3,.23-1.95.45-3.9.68-5.85.14-1.25.3-2.53.83-3.68.62-1.35,1.71-2.42,2.78-3.46,2.13-2.05,4.25-4.1,6.38-6.15,1.62-1.57,3.27-3.16,5.29-4.18,5.69-2.87,11.26-2.11,15.83.68Z"/>
          <path class="cls-1" d="M123.62,309.91c-.26,2.95-.77,5.96-2.23,8.53-1.41,2.48-3.61,4.4-5.76,6.27-4.09,3.55-8.18,7.1-12.26,10.65-1.23,1.07-2.51,2.16-4.07,2.63-1.3.39-2.69.31-4.04.21-10.66-.82-21.24-2.8-31.47-5.9-.91-.27-1.85-.58-2.48-1.29-.6-.69-.8-1.63-.97-2.53-1.26-6.7-2.11-13.47-2.55-20.28,14.08-10.38,28.52-24.27,39.58-42.47,2.49.88,5.08,1.85,7.98,1.85,2.13.61,4.31,1.24,6.1,2.54,1.76,1.29,3.03,3.13,4.15,5.01,6.23,10.37,9.07,22.73,8.02,34.78Z"/>
          <path class="cls-1" d="M167.16,356.16c-1.99.62-4.04.98-6.11.85-5.35-.35-9.94-3.86-13.77-7.59-.87-.85-1.74-1.75-2.16-2.88-.45-1.22-.33-2.57-.17-3.86.79-6.28,2.32-12.48,4.56-18.41.37-.98.78-1.99,1.54-2.71.56-.54,1.26-.88,1.96-1.2,3.06-1.4,6.76-3.18,10.38-4.11,1.14,11.2,2.45,25.13,3.77,39.91Z"/>
          <path class="cls-1" d="M141.26,378.34c-1.89-2.93-3.78-5.86-5.67-8.78-.9-1.39-1.81-2.8-3.06-3.87-3.37-2.9-8.31-2.78-12.75-2.5-7.38.47-15.31,1.14-21,5.87-3.68,3.05-5.96,7.47-7.67,11.94-.95,2.5-1.77,5.12-1.66,7.79.11,2.78,1.21,5.42,2.35,7.97,2.33,5.2,4.91,10.28,7.71,15.24,1.07,1.89,2.24,3.83,4.04,5.05,2.25,1.52,5.14,1.68,7.85,1.59,7.06-.24,14.2-1.92,20.12-5.79,5.43-3.55,9.67-9.66,12.96-15.15,4.01-6.7.63-13.35-3.23-19.34Z"/>
          <path class="cls-1" d="M37.82,359.4c5.32,1,9.66,4.75,13.43,8.63,3.36,3.45,6.55,7.2,8.38,11.65,3.63,8.81,1.23,19.37-4.62,26.9-5.85,7.52-14.7,12.28-23.88,14.82-1.75.49-3.56.9-5.37.77-2.05-.14-3.98-.97-5.79-1.94-11.32-6.05-24.32-23.82-18.55-37.31,2.39-5.6,8.23-9.29,12.75-13.02,6.67-5.5,14.26-12.26,23.66-10.49Z"/>
          <path class="cls-1" d="M37.16,433.91c4.25-2.98,8.82-5.66,13.88-6.85,5.05-1.19,10.68-.72,14.96,2.21,6.32,4.33,8.28,12.65,9.43,20.23.39,2.53.74,5.13.23,7.64-.41,2.06-1.38,3.98-2.57,5.71-9.26,13.58-26.43,11.79-39.45,5.46-15.35-7.47-7.39-26.77,3.52-34.41Z"/>
          <path class="cls-1" d="M174.93,446.9c-1.32.25-2.67.39-4.01.47-6.07.35-12.8-.93-16.58-5.69-3.93-4.93-3.46-12.11-1.31-18.04.58-1.58,1.31-3.19,2.64-4.21.88-.67,1.95-1.03,3-1.38,4.08-1.26,9.05-3.04,13.61-2.69h0c1.04,12.36,1.95,23.33,2.65,31.54Z"/>
        </g>
        <path class="cls-5" d="M189.32,68.13c-5.6.92-11.58,1.99-14.81,3.36-1.28.54-2.12,1.13-2.34,1.78-.44,1.31-1.44,10.25-2.68,22.44-1.96-1.26-3.86-2.61-5.7-4.03-1.2-.94-2.41-1.94-3.19-3.25-.83-1.38-1.14-3-1.34-4.6-.89-7.03.05-14.29,2.71-20.86.38-.94.85-1.92,1.72-2.43.83-.48,1.85-.43,2.8-.34,5.96.54,11.82,2.1,17.28,4.55,3.02,1.36,4.61,2.31,5.55,3.38Z"/>
        <path class="cls-5" d="M164.26,466.59c-10.08,1.28-23.11,1.28-24.91,1.28-3.01,0-5.27-18.83-5.27-18.83,0,0-31.57,7.02-61.19,14.1-6.69,1.6-13.28,3.2-19.39,4.73-6.91,1.73-12.96,1.95-18.22,1.21h0c-19.97-2.78-28.46-19.28-28.46-19.28v-115.23s8.05-2.31,19.8-7.84c.7,1.44,1.3,2.91,1.85,4.35,4.2,11.16,7.03,22.83,8.4,34.68,1.83,15.76,1.99,33.82,13.96,44.24,9.5,8.25,23.98,8.63,35.64,3.92,11.67-4.7,21.07-13.64,29.68-22.8,2.29-2.43,5.13-5.12,8.43-4.62,1.68.25,3.12,1.32,4.38,2.47,10.75,9.86,11.67,26.12,13.38,40.62.9,7.58,2.53,15.56,6.22,22.33,4.05,7.43,9.57,8.86,15.11,14.07.21.2.41.4.6.6Z"/>
      </g>
    </g>
  </g>
</svg>