<?xml version="1.0" encoding="UTF-8"?>
<svg id="Layer_1" xmlns="http://www.w3.org/2000/svg" xmlns:xlink="http://www.w3.org/1999/xlink" version="1.1" viewBox="0 0 1007.6 651.99">
  <!-- Generator: Adobe Illustrator 29.7.1, SVG Export Plug-In . SVG Version: 2.1.1 Build 8)  -->
  <defs>
    <style>
      .st0, .st1, .st2 {
        fill: none;
      }

      .st3 {
        fill: #d8d5b6;
      }

      .st4 {
        fill: #e49649;
      }

      .st5 {
        fill: #111;
      }

      .st6 {
        fill: #f4a351;
      }

      .st7, .st8, .st9, .st10, .st11, .st12, .st13 {
        mix-blend-mode: multiply;
      }

      .st7, .st13 {
        opacity: .48;
      }

      .st14 {
        fill: #fef1dc;
      }

      .st1 {
        stroke: #dd826a;
      }

      .st1, .st2 {
        stroke-miterlimit: 10;
      }

      .st15 {
        fill: #e7e5cd;
      }

      .st16 {
        fill: #dd826a;
      }

      .st17, .st8, .st9, .st10, .st18, .st11, .st12, .st13 {
        isolation: isolate;
      }

      .st19 {
        fill: #ffc64d;
      }

      .st8 {
        opacity: .55;
      }

      .st8, .st20 {
        fill: #708c73;
      }

      .st21 {
        fill: #f6dbc5;
      }

      .st9 {
        opacity: .71;
      }

      .st9, .st22 {
        fill: #d8856b;
      }

      .st10 {
        opacity: .44;
      }

      .st10, .st23 {
        fill: #9da1a2;
      }

      .st2 {
        stroke: #111;
      }

      .st24 {
        fill: #fff;
      }

      .st25 {
        fill: #cc804c;
      }

      .st18 {
        opacity: .41;
      }

      .st18, .st26 {
        fill: #f9f0e4;
      }

      .st27 {
        fill: #f6c951;
      }

      .st11 {
        opacity: .65;
      }

      .st11, .st12, .st13, .st28 {
        fill: #d58c59;
      }

      .st12 {
        opacity: .39;
      }

      .st29 {
        fill: #fac443;
      }

      .st30 {
        fill: #ec9745;
      }

      .st31 {
        fill: #333;
      }

      .st32 {
        fill: #ffe6bd;
      }

      .st33 {
        clip-path: url(#clippath);
      }

      .st34 {
        fill: #e2dacc;
      }
    </style>
    <clipPath id="clippath">
      <rect class="st0" y="8.89" width="1006.29" height="643.1"/>
    </clipPath>
  </defs>
  <g class="st17">
    <g id="OBJECTS">
      <g class="st33">
        <g>
          <path class="st18" d="M1095.64,213.2c-19.64-31.69-71.04-24.93-102.32-3.47-41.66,28.58-68.63,75.96-71.15,125.02-43.87-18.78-101.84,18.24-100.67,64.28-56.89-18.82-120.97-16.85-176.48,5.44-21.21,8.51-44.02,24.72-42.05,46.68-45.22-27.83-113.32-11.76-139.89,33.03-30.62-37.93-96.95-42.15-132.55-8.44,8.94-25.88-8.76-54.71-33.26-68.55-24.5-13.84-54.02-16.21-82.41-17.83-5.51-42.26-53.56-74.56-96.9-65.15,13.71-15.43,8.86-40.37-5.31-55.42-14.17-15.05-35.02-22.38-55.28-28.21-35.33-10.16-74.38-17.24-108.29-3.33-52.88,21.67-71.49,83.28-82.6,137.37-23.69,115.37-40,243.12,23.71,343.6,16.14,25.47,37.42,48.46,64.21,63.56,62.78,35.37,141.39,21.84,213.88,15.28,207.19-18.77,413.88,28.93,621.22,46.16,81.75,6.79,166.39,8.49,243.28-18.95,26.66-9.51,52.61-22.88,71.16-43.54,18.29-20.36,28.16-46.29,37.13-71.74,47.56-135.06,80.11-283.32,34.25-418.93-17.94-53.03-49.86-104.56-100.55-131.86"/>
          <g>
            <path class="st15" d="M832.83,582.55c-.98,29.51,8.57,58.33,18.76,86.19,7.9,21.62,17.2,44.32,36.37,57.99,22.7,16.19,55.56,15.49,80.21,2.17,24.65-13.31,41.55-37.4,50.35-63.18,8.8-25.78,10.24-53.31,9.85-80.43-.34-23.59-2.01-47.18-5.37-70.56-2.74-19.07-7.82-39.92-24.18-51.09-27.06-18.48-81.08-29.63-106.59-4.71-32.07,31.36-57.94,79.36-59.41,123.59h0Z"/>
            <g>
              <path class="st3" d="M972.48,389.37c-4.07-16.21-16.34-30.69-19.29-27.45s-5.41,22.07-5.41,22.07l24.69,5.38h.01Z"/>
              <path class="st15" d="M955.01,487.63c-60.32-4.87-68.84-38.34-69.35-49.78-.05-1.13-.31-2.25-.74-3.36-3.92-10.15-22.22-19.61-27.33-29.72-5.66-11.2,10.84-36.97,28.07-42.86,7.3-2.5,17.93.69,27.75,5.18h0c13.36,6.12,25.24,14.69,25.24,14.69,8.13-3.74,37.53,5.03,56.06,22.98,21.31,20.67,20.65,87.74-39.69,82.86h0Z"/>
              <path class="st5" d="M884.92,434.49c-3.92-10.15-22.22-19.61-27.33-29.72-5.66-11.2,10.84-36.97,28.07-42.86,7.3-2.5,17.93.69,27.75,5.18h0c18.18,31.01,10.77,73.66-28.48,67.4h0Z"/>
              <path class="st15" d="M994.68,411.29c15.94-8,42.45-5.61,43.19.73.74,6.33-33.14,23.86-38.05,22.39-4.91-1.47-5.14-23.11-5.14-23.11h0Z"/>
              <path class="st5" d="M963.84,414.22c-2.17,2.11-5.18,2.62-6.72,1.16s-1.03-4.36,1.14-6.46c2.17-2.11,5.18-2.62,6.72-1.16s1.03,4.36-1.14,6.46Z"/>
              <path class="st15" d="M871.88,378.53c-2.28,1.76-3.37,4.08-2.46,5.17.93,1.09,3.52.54,5.78-1.22,2.28-1.76,3.37-4.08,2.46-5.17s-3.52-.54-5.78,1.22Z"/>
              <path class="st5" d="M988.62,447.12c-13.28-17.13-22.17-20.21-27.57-16.24-5.41,3.95,19.79,34.6,23,31.79,3.21-2.8,4.58-15.54,4.58-15.54h0Z"/>
              <path class="st5" d="M972.48,466.57c-6.08-9.22-26.93-20.32-29.21-16.81-2.29,3.51,19.24,35.13,25.2,31.83,5.96-3.29,4.01-15.02,4.01-15.02Z"/>
              <path class="st5" d="M954.39,382.52c-10.17-1.57-18.92,5.75-18.92,6.86s31.61-3.54,31.61-3.54l-12.69-3.32Z"/>
              <path class="st5" d="M979.91,389.54c-12.83-3.7-34.64,4.63-34.27,6.73.36,2.11,44.34,6.78,42.98,1.81-1.37-4.98-8.71-8.54-8.71-8.54Z"/>
              <g>
                <path class="st15" d="M885.66,467.27s-21.91,34.98-34.47,28.98c-5.51-2.64-15.56-12.99-25.64-24.31-2.55-2.86-5.09-5.76-7.55-8.63-7.88-9.12-15.05-17.78-19.23-22.5-1.17-1.32-2.09-2.33-2.74-2.96-.83-.81-1.61-1.65-2.33-2.5-15.04-17.52-8.59-42.65,8.12-41.81,6.96.35,19.68,8.91,33.27,20.35,2.72,2.3,5.49,4.71,8.24,7.19,18.02,16.27,35.81,35.67,42.33,46.19h0Z"/>
                <path class="st5" d="M805.52,432.28c-2.11,2.95-4.36,5.79-6.75,8.53-1.17-1.32-2.09-2.33-2.74-2.96-.83-.81-1.61-1.65-2.33-2.5,1.93-1.65,3.85-3.28,5.78-4.91,1.41-1.21,3.01-2.48,4.9-2.48.64,0,1.33.18,1.76.64.93,1.02.17,2.57-.62,3.68Z"/>
                <path class="st5" d="M843.32,421.08c-.46.33-.87.67-1.23.99-6.05,5.48-10.72,12.21-19.99,12.73-.97.05-2.09-.03-2.66-.78-.17-.24-.27-.51-.32-.8-.04-.32-.04-.66,0-.98.59-5.76,9.93-14.14,15.97-18.35,2.72,2.3,5.49,4.71,8.24,7.19h0Z"/>
                <path class="st5" d="M836.11,461.63c-3.82,3.13-7.37,6.59-10.56,10.3-2.55-2.86-5.09-5.76-7.55-8.63,5.03-3.27,10.45-6.1,12.88-7.63,1.3-.84,2.67-1.68,4.21-1.94,1.54-.24,3.35.26,4.08,1.59,1.23,2.23-1.06,4.67-3.06,6.3h0Z"/>
              </g>
            </g>
          </g>
          <g>
            <path class="st6" d="M183.75,93.35c14.2-2.91,22.49-13.66,24.43-15.54s5.37,21.06-9.75,25.26c-15.13,4.21-14.68-9.72-14.68-9.72Z"/>
            <path class="st28" d="M176.79,93.1c-2.51-3.7-5.38-7.68-9.81-8.91-23.16-6.48-32.01,38.82-33.84,51.64-8.06,56.73-5.17,114.87-15.91,171.06-5.1,26.69-9.63,56.25-20.06,81.57-9.07,22.02-23.44,35.56-43.55,48.84-17.08,11.27-33.65,23.24-49.66,35.87-2.58,2.03-5.19,4.14-6.76,6.96-2.21,3.97-2.04,8.8-1.03,13.2,1.31,5.75,4.72,11.85,10.69,13.24,4.51,1.04,9.14-.91,13.32-2.83,30.77-14.02,63.29-29.52,80.73-57.56,6.52-10.48,10.55-22.19,14.38-33.81,11.49-34.87,21.68-70.12,30.56-105.69,12.16-48.68,23.55-92.9,30.48-142.52,2.08-14.86,4.16-29.83,3.17-44.79-.6-9.11,2.44-18.61-2.74-26.28h.01Z"/>
            <path class="st27" d="M233.78,149.23c-2.99.78-8.12,1.57-13.65,2.44-.34.05-.66.1-.99.15-7.51,1.18-15.54,2.56-19.87,4.32-1.72.69-2.84,1.45-3.14,2.29-.59,1.68-1.93,13.18-3.6,28.86-.04.39-.08.76-.12,1.14-1.91,18.07-4.21,41.39-6.28,61.58-1.03,9.98-1.99,19.2-2.82,26.66-.09.85-.19,1.72-.28,2.64-1.01,9.9-1.95,23.29-2.67,38.56h0c-.71,15.29-1.22,32.43-1.37,49.78-.27,31.31.59,63.28,3.41,86.18.59,4.84,1.25,10.62,1.95,17.12,1.53,14.41,3.29,32.32,5.06,51.33,2.37,25.38,4.8,52.68,6.87,76.14h0c1.4,15.9,2.62,30.01,3.56,40.57.93,10.66,1.57,17.69,1.77,19.22.4,3.13-6.92,5-16.09,6.11-13.52,1.65-31.01,1.65-33.42,1.65-4.04,0-7.07-24.22-7.07-24.22,0,0-42.36,9.03-82.1,18.14-8.98,2.06-17.82,4.12-26.02,6.08-9.27,2.23-17.39,2.51-24.45,1.56h0c-26.79-3.58-38.19-24.8-38.19-24.8v-148.21s10.8-2.97,26.57-10.08c11.94-5.39,26.74-13.17,41.83-23.83,18.89-13.35,38.27-31.22,53.11-54.62,6.61-10.38,12.32-21.84,16.69-34.47,19.92-57.48,27.65-108.43,30.89-148.41,1.65-20.39,2.12-37.92,2.44-52.01.09-3.46.16-6.71.24-9.76,1.01-39.71,5.39-60.76,18.86-68.16,13.42-7.37,29.64,6.92,48.87,13.83,15.23,5.47,28.95,10.47,34.37,18.03,1.45,1.98,2.31,4.14,2.47,6.53.81,11.52-8.01,15.37-16.83,17.67h-.01Z"/>
            <path class="st27" d="M160.36,106.35c-9.32,4.19-38.59-8.41-44.1-8.41s11.87,31.29,40.28,23.58l3.81-15.16h.01Z"/>
            <path class="st6" d="M116.27,97.93c3.6,21.06,21.33,33.58,40.28,23.58l-40.28-23.58Z"/>
            <ellipse class="st5" cx="193.01" cy="119.43" rx="3.85" ry="5.58"/>
            <path class="st32" d="M233.78,149.23c-2.99.78-8.12,1.57-13.65,2.44h0c-7.08-22.53,14.89-39.71,28-26.65,1.45,1.98,2.31,4.14,2.47,6.53.81,11.52-8.01,15.37-16.83,17.67h0Z"/>
            <path class="st5" d="M234.63,132.55c.47,1.56-.13,3.09-1.34,3.43-1.21.33-2.58-.66-3.05-2.21-.47-1.56.13-3.09,1.34-3.43,1.21-.33,2.58.66,3.05,2.21Z"/>
            <path class="st5" d="M246.89,133.66c-.4,1.57-1.72,2.62-2.94,2.33-1.22-.28-1.89-1.8-1.49-3.37.4-1.57,1.72-2.62,2.94-2.33,1.22.28,1.89,1.8,1.49,3.37Z"/>
            <g>
              <polygon class="st28" points="168.45 100 149.21 81.55 147.6 83.09 162.64 103.88 168.45 100"/>
              <ellipse class="st28" cx="146.09" cy="80.36" rx="5.17" ry="4.95"/>
            </g>
            <g>
              <polygon class="st28" points="185.18 97.91 182.35 71.97 180.1 72.18 178.13 97.41 185.18 97.91"/>
              <path class="st28" d="M184.71,72.26c-1.8,2.12-5.04,2.44-7.26.73-2.21-1.72-2.55-4.84-.76-6.96,1.8-2.12,5.04-2.44,7.26-.73,2.21,1.72,2.55,4.84.76,6.96Z"/>
            </g>
            <g>
              <path class="st30" d="M199.27,156.15c-1.72.69-2.84,1.45-3.14,2.29-.6,1.72-2,13.75-3.72,30.01-4.09.63-8.21.32-11.87-1.49-1.49-.75-2.83-1.7-4.16-2.69-.52-.4-1.06-.8-1.45-1.32-.52-.69-.76-1.54-1.01-2.37-1.7-6.05-3.41-12.09-5.11-18.12-.31-1.11-.62-2.32-.11-3.33,2.75-5.56,14.64-8.42,19.88-7.16,3.58.86,7.61,2.06,10.68,4.19Z"/>
              <path class="st30" d="M164.8,214.48c-3.52,4.76-9.51,7.38-15.54,8.23-1.96.28-3.94.39-5.92.39,1.65-20.39,2.12-37.92,2.44-52.01,2.5.99,4.86,2.83,6.8,5.61,2.78,3.97,3.89,8.78,4.99,13.45,1.11,4.67,2.36,9.47,5.35,13.31,1.42,1.83,3.3,3.55,3.61,5.81.25,1.85-.62,3.69-1.74,5.21h0Z"/>
              <path class="st30" d="M186.14,250.03c-1.03,9.98-1.99,19.2-2.82,26.66-.09.85-.19,1.72-.28,2.64-4.33-1.53-8.17-4.32-10.83-7.94-.67-.91-1.27-1.89-1.5-2.97-.2-.93-.13-1.89.04-2.82.97-5.11,4.92-9.17,9-12.57,1.53-1.27,3.84-2.37,6.39-3.01Z"/>
              <path class="st30" d="M180.37,317.89h0c-.71,15.29-1.22,32.43-1.37,49.78-.97.6-2,1.11-3.11,1.41-2.17.6-4.49.44-6.76.27-4.62-.35-9.22-.69-13.83-1.04-1.65-.13-3.37-.27-4.83-1-1.73-.86-2.91-2.44-4.04-3.96-2.28-3.09-4.58-6.19-6.86-9.27-.74-.99-1.49-2.02-1.81-3.2-.35-1.25-.2-2.57-.04-3.86.31-2.51.6-5.02.91-7.52.19-1.61.4-3.25,1.11-4.73.83-1.74,2.29-3.11,3.73-4.45,2.86-2.64,5.7-5.27,8.56-7.91,2.17-2.02,4.39-4.06,7.1-5.38,7.63-3.69,15.11-2.71,21.24.87h0Z"/>
              <path class="st30" d="M130.99,462.8c-.35,3.79-1.03,7.67-2.99,10.97-1.89,3.19-4.84,5.66-7.73,8.06-5.49,4.57-10.98,9.13-16.45,13.7-1.65,1.38-3.37,2.78-5.46,3.38-1.74.5-3.61.4-5.42.27-14.3-1.05-28.5-3.6-42.22-7.59-1.22-.35-2.48-.75-3.33-1.66-.81-.89-1.07-2.1-1.3-3.25-1.69-8.62-2.83-17.33-3.42-26.08,18.89-13.35,38.27-31.22,53.11-54.62,3.34,1.13,6.82,2.38,10.71,2.38,2.86.78,5.78,1.59,8.18,3.27,2.36,1.66,4.07,4.03,5.57,6.44,8.36,13.34,12.17,29.24,10.76,44.73h0Z"/>
              <path class="st30" d="M189.41,522.29c-2.67.8-5.42,1.26-8.2,1.09-7.18-.45-13.34-4.96-18.48-9.76-1.17-1.09-2.33-2.25-2.9-3.7-.6-1.57-.44-3.31-.23-4.96,1.06-8.08,3.11-16.05,6.12-23.68.5-1.26,1.05-2.56,2.07-3.49.75-.69,1.69-1.13,2.63-1.54,4.11-1.8,9.07-4.09,13.93-5.29,1.53,14.41,3.29,32.32,5.06,51.33h0Z"/>
              <path class="st30" d="M154.66,550.82c-2.54-3.77-5.07-7.54-7.61-11.29-1.21-1.79-2.43-3.6-4.11-4.98-4.52-3.73-11.15-3.58-17.11-3.22-9.9.6-20.54,1.47-28.18,7.55-4.94,3.92-8,9.61-10.29,15.36-1.27,3.22-2.37,6.59-2.23,10.02.15,3.58,1.62,6.97,3.15,10.25,3.13,6.69,6.59,13.22,10.34,19.6,1.44,2.43,3.01,4.93,5.42,6.5,3.02,1.96,6.9,2.16,10.53,2.05,9.47-.31,19.05-2.47,27-7.45,7.29-4.57,12.97-12.42,17.39-19.49,5.38-8.62.85-17.17-4.33-24.88v-.03Z"/>
              <path class="st30" d="M15.89,526.46c7.14,1.29,12.96,6.11,18.02,11.1,4.51,4.44,8.79,9.26,11.24,14.98,4.87,11.33,1.65,24.91-6.2,34.6-7.85,9.67-19.72,15.79-32.04,19.06-2.35.63-4.78,1.16-7.21.99-2.75-.18-5.34-1.25-7.77-2.5-15.19-7.78-32.63-30.64-24.89-47.99,3.21-7.2,11.04-11.95,17.11-16.75,8.95-7.07,19.13-15.77,31.75-13.49h-.01Z"/>
              <path class="st30" d="M14.99,622.3c5.7-3.83,11.83-7.28,18.62-8.81,6.78-1.53,14.33-.93,20.07,2.84,8.48,5.57,11.11,16.27,12.65,26.02.52,3.25.99,6.6.31,9.83-.55,2.65-1.85,5.12-3.45,7.34-12.42,17.47-35.46,15.16-52.93,7.02-20.6-9.61-9.92-34.43,4.72-44.26h0Z"/>
              <path class="st30" d="M199.84,639c-1.77.32-3.58.5-5.38.6-8.14.45-17.17-1.2-22.25-7.32-5.27-6.34-4.64-15.58-1.76-23.2.78-2.03,1.76-4.1,3.54-5.41,1.18-.86,2.62-1.32,4.03-1.77,5.47-1.62,12.14-3.91,18.26-3.46h0c1.4,15.9,2.62,30.01,3.56,40.57h0Z"/>
            </g>
            <path class="st13" d="M219.14,151.83c-7.51,1.18-15.54,2.56-19.87,4.32-1.72.69-2.84,1.45-3.14,2.29-.59,1.68-1.93,13.18-3.6,28.86-2.63-1.62-5.18-3.36-7.65-5.18-1.61-1.21-3.23-2.5-4.28-4.18-1.11-1.77-1.53-3.86-1.8-5.92-1.19-9.04.07-18.38,3.64-26.83.51-1.21,1.14-2.47,2.31-3.13,1.11-.62,2.48-.55,3.76-.44,8,.69,15.86,2.7,23.18,5.85,4.05,1.75,6.19,2.97,7.45,4.35h0Z"/>
            <path class="st13" d="M185.52,664.32c-13.52,1.65-31.01,1.65-33.42,1.65-4.04,0-7.07-24.22-7.07-24.22,0,0-42.36,9.03-82.1,18.14-8.98,2.06-17.82,4.12-26.02,6.08-9.27,2.23-17.39,2.51-24.45,1.56h0c-26.79-3.58-38.19-24.8-38.19-24.8v-148.21s10.8-2.97,26.57-10.08c.94,1.85,1.74,3.74,2.48,5.59,5.64,14.35,9.43,29.36,11.27,44.61,2.46,20.27,2.67,43.5,18.73,56.9,12.75,10.61,32.17,11.1,47.82,5.04,15.66-6.05,28.27-17.54,39.82-29.33,3.07-3.13,6.88-6.59,11.31-5.94,2.25.32,4.19,1.7,5.88,3.18,14.42,12.68,15.66,33.6,17.95,52.25,1.21,9.75,3.39,20.01,8.35,28.72,5.43,9.56,12.84,11.4,20.27,18.1.28.26.55.51.81.77h-.01Z"/>
          </g>
          <g>
            <path class="st23" d="M896.74,330.77c-.9,7.09-3.68,14.12-7.93,19.52-10.16,12.85-82.81,78.84-82.81,78.84,0,0,4.17,114.97,0,162.83-4.17,47.85-29.5,81.09-29.5,81.09l-47.09-5.03v-38.32s-44.83,19.14-76.42,14.2l-.2-.04c-1.6-.23-3.14-.57-4.66-.95-.19-.04-.35-.08-.47-.12-.25-.05-.38-.09-.38-.09l-9.43,36.32-43.71-22.28s1.57-29.4,3.92-67.13c1.18-18.86,2.55-39.78,4.01-60.16.91-12.59,1.85-24.98,2.8-36.52,2.74-32.9,5.58-58.99,7.98-63.83,0,0-24.73-12.84-30.4-19.65-5.68-6.82,18.3-53.96,18.3-53.96l19.66,4.05,53.09,10.93,95.09-14.98c11.3-6.6,23.74-13.66,36.23-20.37,37.35-20.1,75.12-37.15,84.01-29.74,6.86,5.72,9.18,15.58,7.93,25.35h0Z"/>
            <path class="st10" d="M804.8,335.16c-20.85,54.35-46.3,73.53-88.82,74.51-46.95,1.08-93.67-17.38-95.58-50.08l53.09,10.93,95.09-14.98c11.3-6.6,23.74-13.66,36.23-20.37h0Z"/>
            <g>
              <path class="st23" d="M653.38,293.4c-14.5-13.84-31.37-14.39-38.53,0-7.16,14.39,6.01,29.81,22.27,28.63,16.26-1.18,16.26-28.63,16.26-28.63Z"/>
              <path class="st10" d="M645.92,300.2c-6.59-10.96-21.56-14.42-23.29-6.11-1.73,8.32,10.59,19.99,19.78,16.15,9.19-3.83,3.52-10.05,3.52-10.05Z"/>
              <path class="st23" d="M803.05,305.83c-.87,12.91-4.8,23.4-10.37,31.7-10.21,15.25-25.92,23.16-38.17,25.31,0,0-18.29,24.9-47.74,29.34-43.82,6.6-70.21-24.18-73.22-46.98-3.01-22.82,1.36-42.53,10.94-51.11,20.65-18.51,46.1-17.87,46.1-17.87,0,0,30.99-24.79,59.8-26.2,1.68-.08,3.34-.09,4.98-.03h0c26.78,1.05,49.99,21.33,47.67,55.83h.01Z"/>
              <path class="st5" d="M684.01,300.34c1.11,3.81.51,7.31-1.36,7.81s-4.29-2.17-5.41-5.98c-1.11-3.81-.51-7.31,1.36-7.81,1.87-.5,4.29,2.17,5.41,5.98Z"/>
              <path class="st34" d="M803.05,305.83c-.87,12.91-4.8,23.4-10.37,31.7-.72.03-1.45.03-2.19.01-42.63-.98-59.33-76.53-35.15-87.54h.03c26.78,1.04,49.99,21.31,47.67,55.82h.01Z"/>
              <path class="st5" d="M789.54,287.48c-5.15-.84-5.78-14.1-1.15-15.05,4.63-.95,3.93,15.5,1.15,15.05Z"/>
              <path class="st5" d="M772.48,291.84c1.76-4.72-10.01-11.72-13.14-8.32-3.13,3.41,12.2,10.87,13.14,8.32Z"/>
              <path class="st24" d="M702.58,348.55c-.43,22.01,21.83,28.98,33.29,13.98,0,0-29.44-7.52-33.29-13.98Z"/>
            </g>
            <path class="st34" d="M735.24,600.62c-1.45,9.97-3.41,19.76-5.84,29.11-21.51,21.84-61.6,16.95-76.42,14.2l-.2-.04c-2.6-.48-4.4-.89-5.13-1.07-.25-.05-.38-.09-.38-.09,0,0-.85-9.76-1.54-24.94-2.39-52.12-3.09-168.02,37.69-171.31,46.4-3.77,62.63,80.26,51.82,154.14h0Z"/>
            <path class="st0" d="M607.2,499.4c-.34,10.2-2.62,20.15-5.14,30.1.91-12.59,1.85-24.98,2.8-36.52.44.27.83.62,1.18,1.07,1.17,1.49,1.22,3.5,1.15,5.35Z"/>
            <path class="st10" d="M896.74,330.77c-.9,7.09-3.68,14.12-7.93,19.52-10.16,12.85-82.81,78.84-82.81,78.84,0,0,4.17,114.97,0,162.83-4.17,47.85-29.5,81.09-29.5,81.09l-47.09-5.03v-38.32c-21.51,21.84-61.6,16.95-76.42,14.2l-.2-.04c-1.6-.23-3.14-.57-4.66-.95-.19-.04-.35-.08-.47-.12-.25-.05-.38-.09-.38-.09l-9.43,36.32-43.71-22.28s1.57-29.4,3.92-67.13c2.72,8.08,7.37,15.24,14.52,20.36,9.38,6.71,21.29,8.58,33.17,7.78,4.86-.31,9.71-1.07,14.38-2.14,16.06-3.67,31.34-10.37,47.66-12.72,8.91-1.29,18.38-1.4,27.46-2.32,10.88-1.08,21.23-3.32,29.4-10.05,12.83-10.57,15.26-28.41,16.81-44.57,2.75-28.61,5.51-57.21,8.26-85.83,1.99-20.55,4.58-42.56,18.62-58.2,10.87-12.12,26.91-18.47,41.07-26.91,10.16-6.06,19.51-13.38,27.79-21.67,7-7.02,12.36-15.77,19.55-22.62h0Z"/>
          </g>
          <g>
            <path class="st19" d="M621.3,619.91l-.16,1.54c-2,19.04-4.27,34.25-5.5,42.66-1.44,9.83-9.03,14.56-18.21,16.57-16.58,3.65-38.33-1.56-38.33-1.56l-9.55-41.09-.54-2.29s-54.94,7.77-72.77,3.06l-.66,2.95-6.02,27.06-56.98,6.32s.15-14.14.48-35.31c.82-51.69,2.71-145.34,6.01-177.59.09-.94.16-1.85.19-2.73.54-17.43-50.52-21.94-65.48-23.47-8.02-11.94-37.11-55.71-25.48-65.52,4.83-4.08,91.34,15.92,124,14.55,59.14,28.09,163.35,81.97,163.35,81.97,13.18,47.29,10.16,109.57,5.66,152.88h-.01Z"/>
            <path class="st14" d="M553.23,623.89c-1.49,6.84-2.94,11.76-3.69,14.15-.34,1.07-.54,1.63-.54,1.63,0,0-62.7,17.6-72.77,3.06-.23-.32-.44-.64-.66-.98-5.89-8.82-10.61-20.35-13.9-33.2h0c-9.65-37.66-7.03-86.61,14.56-111.96,29.24-34.33,67.92-4.96,78.3,46.42,6.65,32.89,2.52,63.27-1.3,80.88h0Z"/>
            <g>
              <path class="st12" d="M621.3,623.84l-.16,1.54c-32.07,22.83-63.46,11.47-70.99-40.94-8.05-55.94-14.6-81.51-22.14-79.09-7.55,2.41-33.7-7.79-37.23-9.44-3.52-1.65-18.11,10.87-40.24-4.55-12.02-8.37-22.57-19.06-31.29-27.92-7.37-7.45-13.42-13.61-18.02-16.01-2.75-1.43-6.06-4.85-9.08-9.35-8.02-11.94-14.05-31.41-2.42-41.22,4.83-4.08,29.89-6.48,62.55-7.86,59.14,28.09,163.35,81.97,163.35,81.97,13.18,47.29,10.16,109.57,5.66,152.88h0Z"/>
              <path class="st19" d="M606.54,409.67c23.84,47.51,13.27,195.95,13.27,195.95,0,21.34-29.93,32.55-44.2,16.54-14.26-16.01-27.61-117.48-17.6-151.19,10.02-33.72,48.52-61.29,48.52-61.29h.01Z"/>
              <path class="st4" d="M588.41,629.3c-8.65-8.77-8.65-17.94-8.65-17.94l15.95,17.94h-7.3Z"/>
              <path class="st4" d="M604.26,627.41c-.25-.26-.51-.54-.74-.84-5.88-7.43-3.9-24.73-3.9-24.73,0,0,9.16,23.19,9.79,22.74l-5.15,2.83Z"/>
            </g>
            <g>
              <path class="st4" d="M479.13,241.69c-25.49-9.84-50.73,4.93-51.79,11.49-1.07,6.56,10.89,5.99,10.89,5.99,0,0-41.27,16.62-39.88,29.09,1.4,12.48,12.52,6.26,12.52,6.26,0,0-34.23,24.28-32.51,38.62s16.26,12.48,16.26,12.48c0,0-17.5,33.18-10.88,65.51,6.61,32.32,34.84,29.04,34.84,29.04,0,0,23.1,42.65,47.05,50.03,23.95,7.38,30.81-4.1,30.81-4.1,0,0,18.82,17.22,36.79,13.12,17.97-4.1,33.37-38.55,33.37-38.55,0,0,11.54,4.93,20.31-1.65,8.77-6.56,24.18-65.61,24.18-65.61,0,0,13.69,9.84,18.82-1.65,5.14-11.49-5.98-58.64-5.98-58.64,0,0,.99,10.84,7.34,6.03,6.35-4.81-14.18-49.92-30.44-57.3,0,0,9.41-4.68,5.98-18.33-3.42-13.66-68.95-19.02-68.95-19.02,0,0,11.98-9.25,7.53-14.65s-50.15-5.4-66.23,11.82h-.04Z"/>
              <path class="st12" d="M454.28,282.73c1.36-4.08,6.47-6.07,10.89-5.58,4.44.49,8.37,2.83,12.24,4.99,3.86,2.16,8.04,4.23,12.49,4.13-1.27-2.97-2.56-5.94-3.84-8.93,5.41-2.88,12.87-1.5,16.8,3.07,10.25-10.16,25.59-15.4,40.22-13.75,2.37.27,4.86.76,6.67,2.25,2.55,2.08,3.15,6.02,1.34,8.72s-5.8,3.79-8.83,2.43c7.77-.39,15.58.21,23.18,1.76,2.28.46,4.83,1.25,5.78,3.28,1.7,3.68-3.09,6.91-7.02,8.33,7.57,5.13,14.42,11.25,20.3,18.12,1.27,1.49.44,5.02-.94,3.61,5.88,4.94,11.9,10.07,15.39,16.78s3.85,15.49-1.22,21.2c5.39,9.23,6.94,20.48,4.24,30.74-3.25-.35-6.19-2.64-7.18-5.62,1.41,15.95-2.58,32.28-11.23,45.98-.74,1.17-1.66,2.42-3.07,2.65-1.41.22-2.92-1.49-1.95-2.5-2.28,6.89-6.28,13.26-11.58,18.41-2.39,2.33-5.3,4.51-8.71,4.64-3.39.13-7.02-2.78-6.28-5.96-2.46,6.25-5.1,12.77-10.41,17.08-5.31,4.31-14.16,5.4-18.89.51,1.11,6.33-4.96,12.41-11.63,13.04-6.65.63-13.14-3.11-17.23-8.18-4.09-5.07-6.23-11.32-8.06-17.49-.85,7-10.36,10.59-17.17,7.95-6.82-2.64-10.96-9.36-13.24-16.06-2.28-6.7-3.18-13.83-6.1-20.3.38,3.64-5.72,4.96-8.37,2.35-2.66-2.62-2.62-6.74-2.32-10.38s.51-7.7-1.93-10.51c-2.07,5.47-10.87,5.9-15.2,1.81-4.33-4.08-5.02-10.55-4.4-16.33.95-9.02,4.48-17.76,10.09-25.06-1.89,1.53-5.03.63-6.45-1.31-1.42-1.94-1.53-4.49-1.26-6.84.82-7.24,4.75-14.12,10.69-18.68-2.76,3.74-9.66,2.28-11.73-1.85-2.07-4.13-.25-9.23,2.98-12.62,5.53-5.79,14.02-7.04,21.63-5.09-4.16-5.9-10.68-12.26-5.49-19.56,4.84-6.83,16.64-6.12,23.79-4.03-4.04.81-8.39-2.89-6.94-7.23h-.05Z"/>
              <path class="st29" d="M537.31,415.1c-7.66,1.22-16.46,1.87-26.5,1.87s-18.84-.64-26.51-1.87c-46.73-7.34-51.74-35.33-43.32-62.39,9.77-31.5,46.09-59.22,69.84-58.6,23.73-.62,60.06,27.09,69.84,58.6,8.4,27.06,3.39,55.05-43.34,62.39Z"/>
              <g>
                <path class="st5" d="M486.67,337.55c0,3.56-1.69,6.44-3.76,6.44s-3.76-2.88-3.76-6.44,1.69-6.44,3.76-6.44,3.76,2.88,3.76,6.44h0Z"/>
                <path class="st5" d="M542.46,337.55c0,3.56-1.69,6.44-3.76,6.44s-3.76-2.88-3.76-6.44,1.69-6.44,3.76-6.44,3.76,2.88,3.76,6.44h0Z"/>
              </g>
              <path class="st14" d="M539.69,354.93c4.44,12.33-5.07,25.27-18.68,25.66-3.25.09-6.65.14-10.21.14s-6.96-.05-10.21-.14c-13.61-.37-23.12-13.33-18.68-25.66,4.8-13.35,18.9-22.21,28.9-22.21s24.08,8.86,28.89,22.21h-.01Z"/>
              <g>
                <path class="st5" d="M516.25,348.55c0,1.85-2.44,3.34-5.45,3.34s-5.45-1.5-5.45-3.34,2.44-3.34,5.45-3.34,5.45,1.5,5.45,3.34Z"/>
                <path class="st2" d="M524.28,350.58c0,7.69-11.08,6.5-13.47,3.73-2.39,2.77-13.47,3.96-13.47-3.73"/>
              </g>
              <path class="st29" d="M454.08,308.47c-10.36-19.81-24.85-18.75-28.98-4.64-4.15,14.11,12.53,24.03,12.53,24.03l16.46-19.4h-.01Z"/>
              <path class="st12" d="M450.15,313.37c-5.18-9.9-12.42-9.38-14.49-2.32-2.07,7.05,6.27,12.01,6.27,12.01l8.22-9.7h0Z"/>
              <path class="st29" d="M564.27,308.47c10.36-19.81,24.85-18.75,28.98-4.64,4.13,14.11-12.53,24.03-12.53,24.03l-16.46-19.4h.01Z"/>
              <path class="st12" d="M568.21,313.37c5.18-9.9,12.42-9.38,14.49-2.32,2.07,7.05-6.27,12.01-6.27,12.01l-8.22-9.7Z"/>
            </g>
            <path class="st19" d="M616.09,572.46c34.59,15.14,49.42-5.43,48.02-37.36-.55-11.86-2.6-29.81-3.66-41.81-.97-13.76-3.8-28.7,2.74-41.62-5.78,13.18-2.13,27.7-.4,41.36l3.17,20.82c2.01,13.93,4.84,28.58,2.17,42.62-1.91,11.28-8.76,22.86-20.64,26.8-11.46,4.09-24.34,1.56-35.11-2.55l3.73-8.27h-.01Z"/>
            <path class="st4" d="M659.47,463.82c15.32-.13,28.77-15.28,26.91-34.68,0,0-32.05,2.59-26.91,34.68Z"/>
            <path class="st12" d="M597.43,680.69c-16.58,3.65-38.33-1.56-38.33-1.56l-9.55-41.09c-.34,1.07-.54,1.63-.54,1.63,0,0-62.7,17.6-72.77,3.06-.23-.32-.44-.64-.66-.98l-6.02,27.06-56.98,6.32s.15-14.14.48-35.31c30.74-4.06,48.13-30.52,48.62-31.27h0s45.23,31.1,91.56,15.28v.05c-.46,17.02,30.14,44.9,44.2,56.8h0Z"/>
          </g>
          <g>
            <path class="st28" d="M411.65,679.05h-70.02l-7.78-44.75s-51.33,5.8-62.83,0l-3.73,44.75h-58.79s-8.48-35.85-12.96-80.71c-.83-8.41-1.53-17.13-2.01-26.01-.97-18.23-1.01-37.03.6-54.88.76-8.48,2.07-16.84,3.77-25,7.51-36.13,22.89-68.4,34.43-89.08,6.92-12.41,12.48-20.66,14.14-23.06.34-.49.51-.73.51-.73l63.41,6.83,47.22,5.08,1.62,4.68,24.24,69.87,28.19,81.25c1.96,10.84,3.23,21.92,4.01,32.81.52,7.38.81,14.66.93,21.75h0c.68,42.39-4.94,77.21-4.94,77.21h0Z"/>
            <g class="st7">
              <path class="st28" d="M416.59,601.84h0c-13.26,32.97-67.66,27.64-66.47-7.74,1.19-35.38,7.62-101.94-3.82-130.28-8.64-21.42,21.76-6.41,37.17,2.21l28.19,81.25c1.96,10.84,3.23,21.92,4.01,32.81.52,7.38.81,14.66.93,21.75h0Z"/>
            </g>
            <path class="st13" d="M246.65,627.41c-9.12,3.91-40.61-.49-51.12-29.07-.83-8.41-1.53-17.13-2.01-26.01-.97-18.23-1.01-37.03.6-54.88.76-8.48,2.07-16.84,3.77-25,19.66-36.79,59.22-111.27,54.8-82.52-13.42,87.26,11.28,153.07,12.55,171.49,1.26,18.42-2.01,38.91-18.58,45.99Z"/>
            <path class="st32" d="M333.85,634.3c17.29-67.13,21.44-190.61-35.96-198.07s-26.87,198.07-26.87,198.07c0,0,23.06,12.44,62.83,0h0Z"/>
            <g>
              <path class="st25" d="M252.69,298.17c-9.14-14.24-37.27-13-43.66-1.36-6.4,11.65,9.46,30.65,21.83,32.18s21.83-30.83,21.83-30.83h0Z"/>
              <path class="st11" d="M250.81,304.41c-5.22-8.13-21.28-7.42-24.93-.77-3.65,6.65,5.39,17.49,12.46,18.37s12.46-17.6,12.46-17.6h0Z"/>
              <path class="st25" d="M327.55,298.17c9.14-14.24,37.27-13,43.67-1.36,6.4,11.65-9.46,30.65-21.83,32.18s-21.83-30.83-21.83-30.83h-.01Z"/>
              <path class="st11" d="M329.45,304.41c5.22-8.13,21.28-7.42,24.93-.77,3.65,6.65-5.39,17.49-12.46,18.37-7.07.87-12.46-17.6-12.46-17.6h0Z"/>
            </g>
            <path class="st28" d="M270.93,385.68c-.95,2.32-4.76,12.17-9.08,25.8-6.48,20.51-14.1,49.58-14.88,74.47-1.29,41.44,12.53,105.25,9.54,112.43-2.98,7.16-9.54,0-9.54,0,0,0-2.17,11.88-8.22,14.33-6.05,2.46-14.34-5.49-14.34-5.49-.48,4.17-17.35-3.49-30.89-34.88-.78-1.81-1.56-3.7-2.31-5.69-12.81-33.48-11.42-125.8,24.53-175.91,2.87-4.01,5.97-7.74,9.3-11.16,0,0,10.48.06,21.43.73,12.57.75,25.76,2.28,24.47,5.38Z"/>
            <path class="st28" d="M423.88,551.4c-1.96,12.06-4.98,21.53-8.21,28.7-7,15.43-15.09,20.21-16.05,17.33,0,0-6.51,9.35-12.95,8.08-6.44-1.26-10.99-12.51-10.99-12.51,0,0-4.96,8.26-9.37,1.79-4.39-6.46-3.89-71.63-13.62-112.03-6.01-24.94-20.02-52.85-30.69-71.8-6.63-11.74-11.95-20.03-13.31-22.03-.51-.76.16-1.62,1.68-2.51,9-5.41,47.77-12.76,47.77-12.76,3.92,2.69,7.63,5.74,11.18,9.09,44.89,42.41,60.28,133.39,54.55,168.66h0Z"/>
            <path class="st13" d="M369.32,382.74c-2.12,4.9-5.41,9.43-10.1,13.43-7.96,6.77-19.95,11.99-37.21,14.78-.68.12-1.37.22-2.07.32-8.63,1.29-18.53,1.97-29.83,1.97-10.63,0-20.01-.6-28.27-1.75-.52-.06-1.05-.14-1.57-.22-11.43-1.68-20.64-4.39-27.96-7.9-7.33-3.51-12.72-7.78-16.58-12.63,2.87-4.01,5.97-7.74,9.3-11.16,0,0,10.48.06,21.43.73.34-.49.51-.73.51-.73l63.41,6.83c9-5.41,47.77-12.76,47.77-12.76,3.92,2.69,7.63,5.74,11.18,9.09h0Z"/>
            <path class="st28" d="M316.62,397.04c-7.66,1.14-16.46,1.75-26.5,1.75s-18.84-.6-26.51-1.75c-46.73-6.88-51.74-33.09-43.32-58.44,9.77-29.51,46.09-55.46,69.84-54.88,23.74-.58,60.06,25.38,69.84,54.88,8.4,25.35,3.39,51.56-43.34,58.44h0Z"/>
            <g>
              <path class="st5" d="M266,324.41c0,3.33-1.69,6.03-3.76,6.03s-3.76-2.7-3.76-6.03,1.69-6.03,3.76-6.03,3.76,2.7,3.76,6.03Z"/>
              <ellipse class="st5" cx="318.01" cy="324.41" rx="3.76" ry="6.03"/>
            </g>
            <path class="st32" d="M316.62,397.04c-7.66,1.14-16.46,1.75-26.5,1.75s-18.84-.6-26.51-1.75c-13.91-42.74,11.15-77.16,26.51-77.16s40.43,34.41,26.5,77.16Z"/>
            <g>
              <path class="st5" d="M295.57,334.71c0,1.74-2.44,3.14-5.45,3.14s-5.45-1.4-5.45-3.14,2.44-3.14,5.45-3.14,5.45,1.4,5.45,3.14Z"/>
              <path class="st2" d="M303.59,336.61c0,7.2-11.08,6.08-13.47,3.49-2.39,2.6-13.47,3.7-13.47-3.49"/>
            </g>
            <g>
              <path class="st11" d="M254.03,341.51c0,2.03-3.3,3.68-7.38,3.68s-7.38-1.65-7.38-3.68,3.3-3.68,7.38-3.68,7.38,1.65,7.38,3.68Z"/>
              <path class="st11" d="M338.93,341.51c0,2.03-3.3,3.68-7.38,3.68s-7.38-1.65-7.38-3.68,3.3-3.68,7.38-3.68,7.38,1.65,7.38,3.68Z"/>
            </g>
          </g>
          <g>
            <path class="st16" d="M918.73,560.16c-4.08,8.31-28.81,48.4-43.73,57.7,0,0,2.92,47.63-7.27,68.07-10.21,20.44-59.64,16.03-59.64,16.03,0,0-49.43,4.41-59.63-16.03-10.2-20.44-7.27-68.07-7.27-68.07-14.93-9.3-39.66-49.39-43.74-57.7-4.08-8.32-1.53-22.01,2.55-23.96,3.13-1.49,23.25,7.02,37.58,19.24,4.4,3.74,8.24,7.83,10.88,12.1l59.63,18.03,59.64-18.03c2.94-4.75,7.37-9.29,12.4-13.38,14.18-11.52,33.05-19.4,36.05-17.97,4.08,1.96,6.63,15.64,2.55,23.96h0Z"/>
            <path class="st9" d="M880.13,554.16c-9.89,31.61-30.79,53.27-65.25,54.38-34.79,1.12-75.49-4.94-77.3-53.11,4.4,3.74,8.24,7.83,10.88,12.1l59.63,18.03,59.64-18.03c2.94-4.75,7.37-9.29,12.4-13.38Z"/>
            <g>
              <path class="st22" d="M771.42,491.36c-9.19-18.57-36.04-20.57-45.93-6.88-9.89,13.7-.71,35.69,27.56,31.13,28.26-4.57,18.37-24.26,18.37-24.26h0Z"/>
              <path class="st9" d="M768.42,496.6c-5.7-11.52-22.35-12.76-28.48-4.27-6.13,8.49-.44,22.14,17.09,19.31,17.52-2.83,11.39-15.05,11.39-15.05h0Z"/>
              <path class="st22" d="M838.71,491.36c9.19-18.57,36.04-20.57,45.93-6.88,9.89,13.7.71,35.69-27.56,31.13-28.26-4.57-18.37-24.26-18.37-24.26h0Z"/>
              <path class="st9" d="M841.7,496.6c5.7-11.52,22.35-12.76,28.48-4.27,6.13,8.49.44,22.14-17.09,19.31-17.52-2.83-11.39-15.05-11.39-15.05h0Z"/>
            </g>
            <path class="st21" d="M830.23,587.19c-6.4,1.11-13.75,1.7-22.15,1.7s-15.74-.59-22.15-1.7c-39.04-6.62-43.23-31.83-36.2-56.23,8.17-28.37,29.71-53.27,58.35-52.8,28.65-.48,50.18,24.41,58.36,52.8,7.02,24.4,2.83,49.61-36.21,56.23Z"/>
            <path class="st16" d="M803.01,587.91h-.04c-68.27-2.69-36.32-51.72-36.32-51.72-19.35-28.43,21.47-59.56,36.31-49.92,0,0,.03.01.04.01s0-.01.03-.01c14.83-9.65,62.11,21.38,42.75,49.8,0,0,25.51,49.15-42.76,51.83ZM871.94,530.73c-8.95-31.05-32.51-58.29-63.85-57.76-31.34-.53-54.9,26.71-63.84,57.76-7.69,26.69-3.11,54.28,39.61,61.52,7.02,1.21,15.05,1.85,24.23,1.85s17.23-.64,24.23-1.85c42.72-7.24,47.3-34.83,39.62-61.52h0Z"/>
            <path class="st21" d="M852.35,663.72c7.66-25.06-12.71-59.23-47.67-57.52-34.97,1.71-44.59,33.03-39.49,50.69,5.11,17.66,87.16,6.83,87.16,6.83h0Z"/>
            <path class="st16" d="M719.26,656.27c-34.4-28.48-32.07-51.29-27.89-68.36s-18.4-17.07-18.4,8.55,6.53,44.43,33.27,64.93,13.01-5.13,13.01-5.13h0Z"/>
            <g>
              <ellipse class="st5" cx="782.6" cy="521.49" rx="3.43" ry="5.89"/>
              <ellipse class="st5" cx="833.58" cy="521.49" rx="3.43" ry="5.89"/>
            </g>
            <g>
              <path class="st9" d="M813.07,531.55c0,1.68-2.23,3.06-4.98,3.06s-4.98-1.38-4.98-3.06,2.23-3.06,4.98-3.06,4.98,1.38,4.98,3.06Z"/>
              <path class="st16" d="M803.11,538.71s-1.18,27.31,4.98,28.77c6.17,1.47,6.78-28.77,6.78-28.77l-6.78-1.89-4.98,1.89Z"/>
              <path class="st1" d="M820.41,533.42c0,7.02-10.13,5.94-12.32,3.41-2.19,2.53-12.32,3.63-12.32-3.41"/>
            </g>
          </g>
          <g>
            <path class="st24" d="M228.52,637.46c.93,1.25,2.24,2.6,3.82,2.37.82-.13,1.5-.67,2.09-1.23,6.92-6.61,7.33-17.07,7.23-26.44,0-.99-.03-2.02-.51-2.89-.54-.98-1.56-1.61-2.55-2.19-2.71-1.57-5.47-3.04-8.31-4.4-23.76-11.43-7.31,27.38-1.78,34.8h0Z"/>
            <path class="st24" d="M260.96,648.38c.67.82,1.6,1.66,2.68,1.54,1.18-.13,1.89-1.27,2.4-2.3l8.05-15.83c1.07-2.11,2.16-4.59,1.11-6.71-.78-1.58-2.51-2.48-4.19-3.16-6.39-2.61-15.19-5.57-16.83,2.52-1.34,6.64,2.48,18.75,6.76,23.95Z"/>
            <path class="st24" d="M286.12,630.3c1.21,6.64,3.57,13.09,6.96,19,.79,1.38,1.96,2.89,3.6,2.8,1.6-.09,2.59-1.67,3.25-3.07,2.21-4.78,3.84-9.81,4.84-14.96.31-1.59.51-3.4-.5-4.69-.67-.86-1.73-1.32-2.79-1.66-4.6-1.5-9.75-1.39-14.28.33l-1.09,2.26h0Z"/>
            <path class="st20" d="M983.12,510.75c-2.28,85.73-103.18,281.36-285.46,282.45-182.29,1.11-215.53-51.65-271.71-84.62-56.18-32.98-155.92-5.49-182.15-20.89-13.27-7.78-20.77-20.9-21.35-29.98-.58-8.87,5.47-13.89,19.23-6.28,27.81,15.38,106.98-7.38,106.98-7.38h-40.01c-27.89,0-87.91-21.2-94.39-38.78-.44-1.21-.82-2.47-1.14-3.78-4.35-17.9,2.39-45.03,9.12-51.18,7.23-6.59,15.7,3.31,46.99,29.69,31.28,26.37,90.86,19.78,90.86,19.78,0,0,7.39-12.09,16.64-10.01,9.23,2.1,12.55,20.99,12.55,20.99,0,0,32.09-20.88,58.34,8.8,26.23,29.67,103.31,39.56,242.03,48.35,138.72,8.8,185.72-48.35,293.49-157.16h0Z"/>
            <path class="st8" d="M371.28,643.73c-.5,2.89-3.6,4.58-6.36,5.85-25.55,11.72-52.94,23.76-81.01,20.17-14.26-1.81-27.69-7.61-41.94-9.52-6.51-.87-13.18-.94-19.52-2.52-.58-8.87,5.47-13.89,19.23-6.28,27.81,15.38,106.98-7.38,106.98-7.38h-40.01c-27.89,0-87.91-21.2-94.39-38.78-.44-1.21-.82-2.47-1.14-3.78,13.67-.08,30.89,12.23,42.24,14.59,16.29,3.38,33.13,3.15,49.64,5.26,19.59,2.5,38.55,8.27,57.37,14.01,4.36,1.32,9.69,4.08,8.92,8.39h0Z"/>
            <path class="st8" d="M221.22,570.08c3.64-13.45,12.92-17.33,8.53-3.18-4.37,14.15-8.53,3.18-8.53,3.18Z"/>
            <ellipse class="st5" cx="376.88" cy="605.78" rx="3.81" ry="7.41"/>
          </g>
          <g>
            <path class="st31" d="M967.97,534.39c-13.24-22.48-39.22-24.79-47.17-23.64-7.96,1.14,7,72.58,13.98,71.28s33.19-47.65,33.19-47.65h0Z"/>
            <path class="st31" d="M896.86,611.6c-2.91-25.67-25.83-37.61-33.61-39.56-7.78-1.96-23.47,69.34-16.52,70.78s50.11-31.22,50.11-31.22h.01Z"/>
            <path class="st31" d="M791.88,665.15c7.31-24.86-9.28-44.14-15.74-48.75-6.45-4.6-48.8,55.9-42.92,59.73s58.66-10.98,58.66-10.98h0Z"/>
            <path class="st31" d="M512.23,664.08c16.36-10.34,16.78-28.52,15.51-33.98-1.26-5.48-54.57,8.51-53.24,13.3,1.33,4.78,37.72,20.69,37.72,20.69h.01Z"/>
            <path class="st31" d="M461.04,632.25c16.36-10.34,16.78-28.52,15.51-33.98-1.26-5.48-54.57,8.51-53.24,13.3s37.72,20.69,37.72,20.69h.01Z"/>
          </g>
          <g>
            <path class="st26" d="M636.75,146.51c5.59-10.84,2.21-25.24-7.69-32.72-7.42-5.61-21.19-5.34-23.65,3.42,3.6-9.17,4.99-19.41,2.12-28.81-2.87-9.4-10.49-17.75-20.41-20.15-17.38-4.21-35.11,12.84-33.92,29.98.04-5.97-5.43-11.11-11.55-12.27s-12.49,1-17.58,4.46c-12.2,8.31-17.79,24.53-13.15,38.16.46-6.32-8.69-9.3-14.91-7.14-10.33,3.6-16.11,16.13-11.94,25.87-5.93-5.53-16.58-3.73-22.07,2.2-5.5,5.93-6.68,14.55-5.73,22.42,63.68,3.42,127.5,3.36,191.29,3.29,6.39,0,13.07-.08,18.73-2.93,25-12.6-19.86-46.11-29.54-25.78h0Z"/>
            <path class="st26" d="M395.27,86.28c4.17-8.06,1.65-18.77-5.72-24.35-5.53-4.18-15.77-3.97-17.59,2.55,2.67-6.83,3.72-14.44,1.57-21.44-2.13-7-7.81-13.21-15.17-15-12.92-3.13-26.12,9.56-25.24,22.3.03-4.45-4.04-8.27-8.59-9.13-4.55-.86-9.3.75-13.08,3.32-9.07,6.17-13.23,18.25-9.78,28.39.34-4.69-6.47-6.92-11.1-5.31-7.69,2.68-11.98,12-8.88,19.24-4.41-4.12-12.33-2.78-16.42,1.63-4.09,4.41-4.98,10.82-4.27,16.68,47.38,2.55,94.86,2.5,142.3,2.44,4.75,0,9.73-.06,13.93-2.19,18.6-9.38-14.77-34.3-21.98-19.18v.04Z"/>
            <path class="st26" d="M932.35,100.06c4.17-8.06,1.65-18.77-5.72-24.35-5.53-4.18-15.77-3.97-17.59,2.55,2.67-6.83,3.72-14.44,1.57-21.44-2.13-7-7.81-13.21-15.17-15-12.92-3.13-26.12,9.56-25.24,22.3.03-4.45-4.04-8.27-8.59-9.13s-9.3.75-13.08,3.32c-9.07,6.17-13.23,18.25-9.78,28.39.34-4.69-6.47-6.92-11.1-5.31-7.69,2.68-11.98,12-8.88,19.24-4.41-4.12-12.33-2.78-16.42,1.63s-4.98,10.82-4.27,16.68c47.38,2.55,94.86,2.5,142.3,2.44,4.75,0,9.73-.06,13.93-2.19,18.6-9.38-14.77-34.3-21.98-19.18v.04Z"/>
          </g>
        </g>
      </g>
    </g>
  </g>
</svg>